<svg xmlns="http://www.w3.org/2000/svg" width="45" height="45" viewBox="0 0 45 45" fill="none">
  <path d="M22.5 0C13.0163 0 2.8125 2.85891 2.8125 9.14062V35.8594C2.8125 42.1383 13.0163 45 22.5 45C31.9823 45 42.1875 42.1383 42.1875 35.8594V9.14062C42.1875 2.85891 31.9809 0 22.5 0ZM39.375 35.8594C39.375 39.3525 31.8192 42.1875 22.5 42.1875C13.1794 42.1875 5.625 39.3525 5.625 35.8594V30.6056C8.53031 33.5995 15.5391 35.1562 22.5 35.1562C29.4609 35.1562 36.4697 33.5995 39.375 30.6056V35.8594ZM39.375 27.4219H39.3694C39.3694 27.4359 39.375 27.4514 39.375 27.4655C39.375 30.9375 31.8192 33.75 22.5 33.75C13.1808 33.75 5.625 30.9375 5.625 27.4655C5.625 27.4514 5.63063 27.4359 5.63063 27.4219H5.625V22.1681C8.53031 25.162 15.5391 26.7188 22.5 26.7188C29.4609 26.7188 36.4697 25.162 39.375 22.1681V27.4219ZM39.375 18.9844H39.3694C39.3694 18.9984 39.375 19.0139 39.375 19.028C39.375 22.5 31.8192 25.3125 22.5 25.3125C13.1808 25.3125 5.625 22.5 5.625 19.028C5.625 19.0139 5.63063 18.9984 5.63063 18.9844H5.625V14.1525C9.31078 16.9608 16.0664 18.2812 22.5 18.2812C28.9336 18.2812 35.6892 16.9608 39.375 14.1525V18.9844ZM22.5 15.4688C13.1794 15.4688 5.625 12.6337 5.625 9.14062C5.625 5.64469 13.1794 2.8125 22.5 2.8125C31.8192 2.8125 39.375 5.64469 39.375 9.14062C39.375 12.6337 31.8192 15.4688 22.5 15.4688Z" fill="white"/>
  <path d="M35.1562 37.9688C35.9329 37.9688 36.5625 37.3392 36.5625 36.5625C36.5625 35.7858 35.9329 35.1562 35.1562 35.1562C34.3796 35.1562 33.75 35.7858 33.75 36.5625C33.75 37.3392 34.3796 37.9688 35.1562 37.9688Z" fill="white"/>
  <path d="M35.1562 29.5312C35.9329 29.5312 36.5625 28.9017 36.5625 28.125C36.5625 27.3483 35.9329 26.7188 35.1562 26.7188C34.3796 26.7188 33.75 27.3483 33.75 28.125C33.75 28.9017 34.3796 29.5312 35.1562 29.5312Z" fill="white"/>
  <path d="M35.1562 21.0938C35.9329 21.0938 36.5625 20.4642 36.5625 19.6875C36.5625 18.9108 35.9329 18.2812 35.1562 18.2812C34.3796 18.2812 33.75 18.9108 33.75 19.6875C33.75 20.4642 34.3796 21.0938 35.1562 21.0938Z" fill="white"/>
</svg>