<svg xmlns="http://www.w3.org/2000/svg" width="48" height="49" viewBox="0 0 48 49" fill="none">
  <path fill-rule="evenodd" clip-rule="evenodd" d="M37 47.5H11C8.791 47.5 7 45.709 7 43.5V8.5C7 6.291 8.791 4.5 11 4.5H14C14.553 4.5 15 4.948 15 5.5C15 6.052 14.553 6.5 14 6.5H11C9.896 6.5 9 7.396 9 8.5V43.5C9 44.604 9.896 45.5 11 45.5H37C38.104 45.5 39 44.604 39 43.5V8.5C39 7.396 38.104 6.5 37 6.5H34C33.447 6.5 33 6.052 33 5.5C33 4.948 33.447 4.5 34 4.5H37C39.209 4.5 41 6.291 41 8.5V43.5C41 45.709 39.209 47.5 37 47.5ZM35 9.5C35 10.052 34.553 10.5 34 10.5H14C13.447 10.5 13 10.052 13 9.5C13 8.948 13.447 8.5 14 8.5C14 8.5 15.125 8.375 16 7.5L18 5.5C18 5.5 18.781 4.5 20 4.5H21C21 2.843 22.344 1.5 24 1.5C25.657 1.5 27 2.843 27 4.5H28C29.312 4.5 30 5.5 30 5.5L32 7.5C32.875 8.375 34 8.5 34 8.5C34.553 8.5 35 8.948 35 9.5ZM24 3.5C23.447 3.5 23 3.948 23 4.5H25C25 3.948 24.553 3.5 24 3.5ZM29.363 7.5C29.363 7.5 28.684 6.5 27.546 6.5H20.455C19.315 6.5 18.637 7.5 18.637 7.5L17.728 8.5H30.273L29.363 7.5Z" fill="white"/>
</svg>